<?xml version="1.0" encoding="UTF-8"?>
<svg xmlns="http://www.w3.org/2000/svg" xmlns:xlink="http://www.w3.org/1999/xlink" viewBox="0 0 2000 1000">
  <defs>
    <style>
      .cls-1 {
        isolation: isolate;
      }

      .cls-2 {
        fill: #161616;
      }

      .cls-3 {
        fill: #c22b1f;
        mix-blend-mode: multiply;
      }

      .cls-4 {
        fill: url(#linear-gradient);
      }
    </style>
    <linearGradient id="linear-gradient" x1="1000" y1="58.55" x2="1000" y2="661.83" gradientUnits="userSpaceOnUse">
      <stop offset="0" stop-color="#ff0531"/>
      <stop offset="1" stop-color="#910710"/>
    </linearGradient>
  </defs>
  <g class="cls-1">
    <g id="Layer_2" data-name="Layer 2">
      <g>
        <path class="cls-4" d="M1038.33,129.93c-65.1,116.75-129.3,231.88-192.12,344.49l-34.17,65.77c18.72-14.95,38.85-26.92,60.42-35.62l25.59-47.21c54.5-97.78,108.13-194.03,161.64-290.07-7.25-12.71-13.05-25.01-21.37-37.36Zm-37.98-68.96s-216.64,391.66-326.14,586.6h42.28L1022.26,99.57l-21.91-38.6Zm287.21,586.85h38.23c-82.95-149.84-166.53-300.84-249.94-451.5l-164.79,296.45c59.6-7.29,117.37-7.83,172.99,.08l-49.45-101.22-10.77-22.03,1.2-2.24,13.46-24.85s.04,.12,.21,.33v.04c.95,1.7,5.22,9.32,11.6,20.75,21.45,38.35,66.88,119.65,91.48,164,1.04,1.78,3.56,5.72,4.02,7.83-1.78-.46-6.05-2.4-7.74-3.11-23.19-9.94-47.3-16.65-72.52-17.77-28.53-1.28-57.15-1.95-85.73-1.45-27.04,.54-53.92,3.93-79.72,12.67-60.96,20.62-103.16,62.33-132.36,118.45-.5,.91-.21,2.15-.29,3.6h39.72c2.94-4.31,5.8-8.61,8.7-12.8,33.26-47.42,77.49-76.66,135.92-82.75,36.82-3.89,73.68-4.89,110.58-1.53,62.45,5.72,108.96,36.28,140.48,90.16,1.37,2.36,2.77,4.64,3.98,6.67h44.19c-60.18-108.01-119.85-215.15-179.41-322l-11.64-20.91c6.17-10.89,11.8-20.87,18.31-32.3,70.4,126.27,139.98,251.01,209.31,375.42Zm-274-218.63l11.39,20.54h-45.68c7.74-14,14.83-26.75,22.82-41.17l11.47,20.62Zm-226.12,81.3l-70.94,137.08"/>
        <polygon class="cls-3" points="1037.69 397.96 1016.26 434.05 1002.09 408.57 1025.04 367.36 1023.83 369.6 1037.69 397.96"/>
        <path class="cls-3" d="M1075.64,332.9l-21.5,37.61c-6.38-11.43-14.49-25.92-15.44-27.62v-.04l21.25-38.14,15.69,28.2Z"/>
        <g>
          <path class="cls-2" d="M163.51,902.62H89.43l-14.6,34.29h-28.36l66.67-148.16h27.09l66.89,148.16h-28.78l-14.82-34.29Zm-9.11-21.59l-27.93-64.77-27.73,64.77h55.66Z"/>
          <path class="cls-2" d="M327.55,788.75l-30.93,43.5,15.19,19.46,45.58-62.96h-29.84Zm-75.31,0h-31.15l108.32,148.11h31.81l-108.98-148.11Zm-34.1,148.11h31.26l33.23-46.89v-.11l-15.63-20.11-48.86,67.11Z"/>
          <path class="cls-2" d="M486.5,788.75l-30.93,43.5,15.19,19.46,45.58-62.96h-29.84Zm-75.31,0h-31.15l108.32,148.11h31.81l-108.98-148.11Zm-34.1,148.11h31.26l33.23-46.89v-.11l-15.63-20.11-48.86,67.11Z"/>
          <path class="cls-2" d="M525.36,921.24l9.52-21.38c11.85,9.53,30.69,16.3,48.89,16.3,23.07,0,32.81-8.26,32.81-19.26,0-31.96-88.05-11.01-88.05-66.04,0-23.92,19.05-44.23,59.69-44.23,17.78,0,36.41,4.66,49.32,13.12l-8.68,21.38c-13.33-7.83-27.94-11.64-40.85-11.64-22.86,0-32.17,8.89-32.17,20.11,0,31.54,87.84,11.01,87.84,65.4,0,23.71-19.26,44.03-59.9,44.03-23.07,0-46.14-7.2-58.42-17.78Z"/>
          <path class="cls-2" d="M750.62,788.75h27.51v124.87h77.46v23.28h-104.98v-148.16Z"/>
          <path class="cls-2" d="M874.69,862.82c0-43.81,33.86-76.19,79.8-76.19s79.79,32.17,79.79,76.19-33.87,76.2-79.79,76.2-79.8-32.39-79.8-76.2Zm131.85,0c0-30.27-22.22-52.06-52.05-52.06s-52.07,21.8-52.07,52.06,22.22,52.07,52.07,52.07,52.05-21.8,52.05-52.07Z"/>
          <path class="cls-2" d="M1175.29,861.13h26.03v59.05c-15.46,12.49-37.04,18.84-57.99,18.84-45.93,0-79.8-31.96-79.8-76.2s33.87-76.19,80.22-76.19c24.76,0,45.5,8.26,59.48,24.13l-17.36,16.93c-11.64-11.64-24.98-16.93-40.85-16.93-31.53,0-53.76,21.38-53.76,52.06s22.22,52.07,53.54,52.07c10.59,0,20.95-2.12,30.49-7.62v-46.14Z"/>
          <path class="cls-2" d="M1248.14,788.75h27.52v148.16h-27.52v-148.16Z"/>
          <path class="cls-2" d="M1313.78,921.24l9.52-21.38c11.86,9.53,30.69,16.3,48.9,16.3,23.07,0,32.8-8.26,32.8-19.26,0-31.96-88.05-11.01-88.05-66.04,0-23.92,19.05-44.23,59.69-44.23,17.78,0,36.4,4.66,49.32,13.12l-8.68,21.38c-13.33-7.83-27.93-11.64-40.85-11.64-22.85,0-32.17,8.89-32.17,20.11,0,31.54,87.84,11.01,87.84,65.4,0,23.71-19.26,44.03-59.89,44.03-23.08,0-46.15-7.2-58.42-17.78Z"/>
          <path class="cls-2" d="M1497.94,812.03h-49.1v-23.28h125.72v23.28h-49.1v124.87h-27.52v-124.87Z"/>
          <path class="cls-2" d="M1605.93,788.75h27.51v148.16h-27.51v-148.16Z"/>
          <path class="cls-2" d="M1673.46,862.82c0-44.23,33.87-76.19,79.37-76.19,24.12,0,44.88,8.68,58.62,24.76l-17.77,16.72c-10.79-11.64-24.13-17.36-39.58-17.36-30.69,0-52.91,21.59-52.91,52.06s22.22,52.07,52.91,52.07c15.45,0,28.79-5.72,39.58-17.57l17.77,16.93c-13.75,16.09-34.5,24.76-58.84,24.76-45.29,0-79.16-31.96-79.16-76.2Z"/>
          <path class="cls-2" d="M1835.22,921.24l9.52-21.38c11.86,9.53,30.69,16.3,48.9,16.3,23.07,0,32.8-8.26,32.8-19.26,0-31.96-88.05-11.01-88.05-66.04,0-23.92,19.05-44.23,59.69-44.23,17.78,0,36.4,4.66,49.32,13.12l-8.68,21.38c-13.33-7.83-27.93-11.64-40.85-11.64-22.85,0-32.17,8.89-32.17,20.11,0,31.54,87.84,11.01,87.84,65.4,0,23.71-19.26,44.03-59.89,44.03-23.08,0-46.15-7.2-58.42-17.78Z"/>
        </g>
      </g>
    </g>
  </g>
</svg>