<?xml version="1.0" encoding="UTF-8"?>
<svg xmlns="http://www.w3.org/2000/svg" xmlns:xlink="http://www.w3.org/1999/xlink" viewBox="0 0 2000 1000">
  <defs>
    <style>
      .cls-1 {
        isolation: isolate;
      }

      .cls-2 {
        fill: #737373;
      }

      .cls-3 {
        fill: #c22b1f;
        mix-blend-mode: multiply;
      }

      .cls-4 {
        fill: url(#linear-gradient);
      }
    </style>
    <linearGradient id="linear-gradient" x1="1000" y1="65.48" x2="1000" y2="668.77" gradientUnits="userSpaceOnUse">
      <stop offset="0" stop-color="#ff0531"/>
      <stop offset="1" stop-color="#910710"/>
    </linearGradient>
  </defs>
  <g class="cls-1">
    <g id="Layer_2" data-name="Layer 2">
      <g>
        <path class="cls-4" d="M1038.33,136.87c-65.1,116.75-129.3,231.88-192.12,344.49l-34.17,65.77c18.72-14.95,38.85-26.92,60.42-35.62l25.59-47.21c54.5-97.78,108.13-194.03,161.64-290.07-7.25-12.71-13.05-25.01-21.37-37.36Zm-37.98-68.96s-216.64,391.66-326.14,586.6h42.28L1022.26,106.51l-21.91-38.6Zm287.21,586.85h38.23c-82.95-149.84-166.53-300.84-249.94-451.5l-164.79,296.45c59.6-7.29,117.37-7.83,172.99,.08l-49.45-101.22-10.77-22.03,1.2-2.24,13.46-24.85s.04,.12,.21,.33v.04c.95,1.7,5.22,9.32,11.6,20.75,21.45,38.35,66.88,119.65,91.48,164,1.04,1.78,3.56,5.72,4.02,7.83-1.78-.46-6.05-2.4-7.74-3.11-23.19-9.94-47.3-16.65-72.52-17.77-28.53-1.28-57.15-1.95-85.73-1.45-27.04,.54-53.92,3.93-79.72,12.67-60.96,20.62-103.16,62.33-132.36,118.45-.5,.91-.21,2.15-.29,3.6h39.72c2.94-4.31,5.8-8.61,8.7-12.8,33.26-47.42,77.49-76.66,135.92-82.75,36.82-3.89,73.68-4.89,110.58-1.53,62.45,5.72,108.96,36.28,140.48,90.16,1.37,2.36,2.77,4.64,3.98,6.67h44.19c-60.18-108.01-119.85-215.15-179.41-322l-11.64-20.91c6.17-10.89,11.8-20.87,18.31-32.3,70.4,126.27,139.98,251.01,209.31,375.42Zm-274-218.63l11.39,20.54h-45.68c7.74-14,14.83-26.75,22.82-41.17l11.47,20.62Zm-226.12,81.3l-70.94,137.08"/>
        <g>
          <polygon class="cls-3" points="1037.83 404.89 1016.4 440.98 1002.23 415.51 1025.17 374.3 1023.97 376.54 1037.83 404.89"/>
          <path class="cls-3" d="M1075.77,339.84l-21.5,37.61c-6.38-11.43-14.49-25.92-15.44-27.62v-.04l21.25-38.14,15.69,28.2Z"/>
        </g>
      </g>
      <g>
        <path class="cls-2" d="M217.5,782.07h14.88l63.23,147.31h-13.56l-17.28-39.98h-79.64l-17.28,39.98h-13.56l63.23-147.31Zm42.45,95.75l-35.01-81.44-35.01,81.44h70.01Z"/>
        <path class="cls-2" d="M614.82,912.97l9.19-8.84c10.21,9.54,23.99,14.31,41.35,14.31,11.96,0,21.51-2.42,28.66-7.26,7.15-4.84,10.72-11.47,10.72-19.89,0-5.47-1.61-10.17-4.81-14.1-3.21-3.93-7.44-7.05-12.69-9.36s-11.02-4.42-17.28-6.31c-6.27-1.89-12.51-3.93-18.71-6.1-6.2-2.17-11.92-4.66-17.18-7.47-5.25-2.8-9.48-6.73-12.69-11.78-3.21-5.05-4.81-10.94-4.81-17.68,0-11.64,4.38-20.83,13.13-27.57,8.75-6.73,20.57-10.1,35.44-10.1,9.92,0,19.03,1.55,27.35,4.63,8.31,3.09,14.8,7.44,19.47,13.05l-9.19,8.84c-3.65-4.35-8.86-7.82-15.64-10.42-6.78-2.59-14.33-3.89-22.65-3.89-10.8,0-19.36,2.21-25.71,6.63-6.35,4.42-9.52,10.42-9.52,17.99,0,7.02,3.03,12.73,9.08,17.15,6.05,4.42,13.38,7.89,21.99,10.42,8.6,2.53,17.21,5.23,25.82,8.1,8.6,2.88,15.93,7.37,21.99,13.47,6.05,6.1,9.08,13.93,9.08,23.46,0,12.49-4.74,22.34-14.22,29.57-9.48,7.23-22.25,10.84-38.29,10.84-21.3,0-37.93-5.89-49.88-17.68Z"/>
        <path class="cls-2" d="M830.55,801.85c14-14.03,31.72-21.04,53.17-21.04s40.48,7.51,54.48,22.52l-10.06,8.21c-11.67-12.34-26.47-18.52-44.41-18.52s-32.2,5.89-43.65,17.68c-11.45,11.79-17.18,26.8-17.18,45.04s5.72,33.25,17.18,45.03c11.45,11.79,26,17.68,43.65,17.68s32.89-6.1,44.41-18.31l10.06,8c-14,15.01-32.16,22.52-54.48,22.52s-39.16-7.08-53.17-21.25c-14-14.17-21-32.06-21-53.66s7-39.7,21-53.87Z"/>
        <path class="cls-2" d="M973.42,929.38v-147.31h106.33v11.57h-93.21v55.56h84.45v11.57h-84.45v57.03h93.21v11.57h-106.33Z"/>
        <path class="cls-2" d="M1119.79,782.07h13.13l98.67,126.9v-126.9h13.13v147.31h-13.13l-98.67-126.9v126.9h-13.13v-147.31Z"/>
        <path class="cls-2" d="M1276,782.07h129.52v11.57h-58.2v135.74h-13.13v-135.74h-58.2v-11.57Z"/>
        <path class="cls-2" d="M1436.81,929.38v-147.31h64.98c13.13,0,23.92,3.93,32.38,11.78,8.46,7.86,12.69,17.82,12.69,29.88,0,10.38-3.25,19.29-9.74,26.73-6.49,7.44-15.06,12.14-25.71,14.1l40.26,64.82h-14.44l-39.82-63.98h-47.48v63.98h-13.13Zm64.98-135.74h-51.85v60.19h51.85c9.19,0,16.81-2.84,22.86-8.52,6.05-5.68,9.08-12.87,9.08-21.57s-3.03-15.89-9.08-21.57c-6.05-5.68-13.67-8.52-22.86-8.52Z"/>
        <path class="cls-2" d="M1634.38,782.07h14.88l63.23,147.31h-13.56l-17.28-39.98h-79.64l-17.28,39.98h-13.56l63.23-147.31Zm42.45,95.75l-35.01-81.44-35.01,81.44h70.01Z"/>
        <path class="cls-2" d="M1742.9,929.38v-147.31h13.13v135.74h89.7v11.57h-102.83Z"/>
        <path class="cls-2" d="M426.98,782.07l-43.53,55.7,8.26,9.54,51.02-65.24h-15.75Zm-97.14,0l-15.7,.06,115.04,147.25h15.75l-115.08-147.31Zm-17.94,147.31h15.75l43.91-55.83,1.77-2.25-7.89-10.52-53.54,68.6Z"/>
        <path class="cls-2" d="M576.97,782.07l-43.53,55.7,8.26,9.54,51.02-65.24h-15.75Zm-97.14,0l-15.7,.06,115.04,147.25h15.75l-115.08-147.31Zm-17.94,147.31h15.75l43.91-55.83,1.77-2.25-7.89-10.52-53.54,68.6Z"/>
      </g>
    </g>
  </g>
</svg>