<?xml version="1.0" encoding="UTF-8"?>
<svg xmlns="http://www.w3.org/2000/svg" xmlns:xlink="http://www.w3.org/1999/xlink" viewBox="0 0 2000 1000">
  <defs>
    <style>
      .cls-1 {
        isolation: isolate;
      }

      .cls-2 {
        fill: #737373;
      }

      .cls-3 {
        fill: #c22b1f;
        mix-blend-mode: multiply;
      }

      .cls-4 {
        fill: url(#linear-gradient);
      }
    </style>
    <linearGradient id="linear-gradient" x1="1000" y1="65.48" x2="1000" y2="668.77" gradientUnits="userSpaceOnUse">
      <stop offset="0" stop-color="#ff0531"/>
      <stop offset="1" stop-color="#910710"/>
    </linearGradient>
  </defs>
  <g class="cls-1">
    <g id="Layer_2" data-name="Layer 2">
      <g>
        <path class="cls-4" d="M1038.33,136.87c-65.1,116.75-129.3,231.88-192.12,344.49l-34.17,65.77c18.72-14.95,38.85-26.92,60.42-35.62l25.59-47.21c54.5-97.78,108.13-194.03,161.64-290.07-7.25-12.71-13.05-25.01-21.37-37.36Zm-37.98-68.96s-216.64,391.66-326.14,586.6h42.28L1022.26,106.51l-21.91-38.6Zm287.21,586.85h38.23c-82.95-149.84-166.53-300.84-249.94-451.5l-164.79,296.45c59.6-7.29,117.37-7.83,172.99,.08l-49.45-101.22-10.77-22.03,1.2-2.24,13.46-24.85s.04,.12,.21,.33v.04c.95,1.7,5.22,9.32,11.6,20.75,21.45,38.35,66.88,119.65,91.48,164,1.04,1.78,3.56,5.72,4.02,7.83-1.78-.46-6.05-2.4-7.74-3.11-23.19-9.94-47.3-16.65-72.52-17.77-28.53-1.28-57.15-1.95-85.73-1.45-27.04,.54-53.92,3.93-79.72,12.67-60.96,20.62-103.16,62.33-132.36,118.45-.5,.91-.21,2.15-.29,3.6h39.72c2.94-4.31,5.8-8.61,8.7-12.8,33.26-47.42,77.49-76.66,135.92-82.75,36.82-3.89,73.68-4.89,110.58-1.53,62.45,5.72,108.96,36.28,140.48,90.16,1.37,2.36,2.77,4.64,3.98,6.67h44.19c-60.18-108.01-119.85-215.15-179.41-322l-11.64-20.91c6.17-10.89,11.8-20.87,18.31-32.3,70.4,126.27,139.98,251.01,209.31,375.42Zm-274-218.63l11.39,20.54h-45.68c7.74-14,14.83-26.75,22.82-41.17l11.47,20.62Zm-226.12,81.3l-70.94,137.08"/>
        <g>
          <polygon class="cls-3" points="1037.83 404.89 1016.4 440.98 1002.23 415.51 1025.17 374.3 1023.97 376.54 1037.83 404.89"/>
          <path class="cls-3" d="M1075.77,339.84l-21.5,37.61c-6.38-11.43-14.49-25.92-15.44-27.62v-.04l21.25-38.14,15.69,28.2Z"/>
        </g>
      </g>
      <g>
        <g>
          <path class="cls-2" d="M842.97,806.77c14.55-14.21,32.88-21.31,55-21.31s41.64,7.53,56.33,22.58l-20.93,16.46c-9.21-9.57-21.01-14.35-35.4-14.35s-26.02,4.78-35.29,14.35c-9.28,9.57-13.92,21.74-13.92,36.51s4.64,26.94,13.92,36.51c9.27,9.57,21.04,14.35,35.29,14.35s26.05-4.78,35.4-14.35l20.93,16.46c-14.7,15.06-33.47,22.58-56.33,22.58s-40.45-7.14-55-21.42c-14.55-14.28-21.82-32.32-21.82-54.13s7.27-39.89,21.82-54.24Z"/>
          <path class="cls-2" d="M979.68,934.87v-147.73h111.77v23.21h-84.39v37.99h75.48v23.21h-75.48v40.1h84.39v23.21h-111.77Z"/>
          <path class="cls-2" d="M1123.07,787.14h27.39l79.71,105.31v-105.31h27.61v147.73h-27.61l-79.71-105.31v105.31h-27.39v-147.73Z"/>
          <path class="cls-2" d="M1280.04,787.14h129.14v23.21h-50.76v124.52h-27.61v-124.52h-50.76v-23.21Z"/>
          <path class="cls-2" d="M1431.66,934.87v-147.73h68.35c14.1,0,25.75,4.22,34.96,12.66,9.2,8.44,13.8,19.21,13.8,32.29,0,9.71-2.64,18.22-7.9,25.54-5.27,7.32-12.43,12.66-21.49,16.04l34.07,61.2h-29.39l-30.95-58.04h-34.07v58.04h-27.39Zm68.35-124.52h-40.97v43.26h40.97c6.23,0,11.36-2.04,15.36-6.12,4.01-4.08,6.01-9.21,6.01-15.41s-2-11.71-6.01-15.72-9.13-6.01-15.36-6.01Z"/>
          <path class="cls-2" d="M1628.26,787.14h31.17l60.78,147.73h-28.05l-13.36-33.13h-69.91l-13.36,33.13h-28.05l60.78-147.73Zm41.19,91.38l-25.6-63.1-25.61,63.1h51.21Z"/>
          <path class="cls-2" d="M1743.6,934.87v-147.73h27.39v124.52h79.93v23.21h-107.32Z"/>
        </g>
        <g>
          <path class="cls-2" d="M266.13,900.57h-74.08l-14.6,34.29h-28.36l66.67-148.16h27.09l66.89,148.16h-28.78l-14.82-34.29Zm-9.11-21.59l-27.93-64.77-27.73,64.77h55.66Z"/>
          <path class="cls-2" d="M589.12,786.71l-30.93,43.5,15.19,19.46,45.58-62.96h-29.84Zm-75.31,0h-31.15l108.32,148.11h31.81l-108.98-148.11Zm-34.1,148.11h31.26l33.23-46.89v-.11l-15.63-20.11-48.86,67.11Z"/>
          <path class="cls-2" d="M433.8,786.71l-30.93,43.5,15.19,19.46,45.58-62.96h-29.84Zm-75.31,0h-31.15l108.32,148.11h31.81l-108.98-148.11Zm-34.1,148.11h31.26l33.23-46.89v-.11l-15.63-20.11-48.86,67.11Z"/>
          <path class="cls-2" d="M627.98,919.2l9.52-21.38c11.85,9.53,30.69,16.3,48.89,16.3,23.07,0,32.81-8.26,32.81-19.26,0-31.96-88.05-11.01-88.05-66.04,0-23.92,19.05-44.23,59.69-44.23,17.78,0,36.41,4.66,49.32,13.12l-8.68,21.38c-13.33-7.83-27.94-11.64-40.85-11.64-22.86,0-32.17,8.89-32.17,20.11,0,31.54,87.84,11.01,87.84,65.4,0,23.71-19.26,44.03-59.9,44.03-23.07,0-46.14-7.2-58.42-17.78Z"/>
        </g>
      </g>
    </g>
  </g>
</svg>