<?xml version="1.0" encoding="UTF-8"?>
<svg id="Layer_1" data-name="Layer 1" xmlns="http://www.w3.org/2000/svg" viewBox="0 0 293.82 201.09">
  <defs>
    <style>
      .cls-1 {
        fill: #fff;
      }
    </style>
  </defs>
  <g>
    <path class="cls-1" d="M116.9,168.03l-6.49-12.88c10.44-4.99,18.33-12.67,23.45-22.86,3.32-6.58,5.3-15.72,5.89-27.14v-.26s-64.7,0-64.7,0v55.23l-16.7,7.91h-.58V97.59c0-17.13,2.86-31.06,8.51-41.42,9.87-18.09,23.74-27.26,41.22-27.26s31.41,9.17,41.22,27.26c5.65,10.41,8.51,24.34,8.51,41.42s-2.86,30.77-8.51,41.41c-7.93,14.92-18.4,24.69-31.12,29.04h-.69Zm-9.41-124.5c-11.01,0-19.89,6.51-26.37,19.35-3.32,6.64-5.3,15.77-5.89,27.13v.26s64.54,0,64.54,0v-.26c-.61-11.37-2.59-20.49-5.91-27.13-6.42-12.84-15.3-19.35-26.37-19.35Z"/>
    <path d="M107.5,29.17c17.44,0,31.24,9.13,41,27.13,5.63,10.37,8.48,24.27,8.48,41.3s-2.85,30.69-8.48,41.29c-7.89,14.85-18.3,24.57-30.94,28.9h-.5l-6.3-12.52c10.38-5.01,18.23-12.7,23.34-22.86,3.33-6.62,5.33-15.78,5.92-27.24l.03-.53H74.81v55.32l-16.51,7.82h-.28V97.59c0-17.08,2.85-30.98,8.48-41.3,9.82-18,23.61-27.13,41-27.13m-32.54,61.36h65.08l-.03-.53c-.59-11.4-2.59-20.56-5.92-27.23-6.47-12.93-15.42-19.48-26.6-19.48s-20.06,6.56-26.59,19.48c-3.33,6.67-5.33,15.83-5.92,27.23l-.03,.53M107.5,28.67c-17.67,0-31.48,9.13-41.44,27.39-5.69,10.44-8.54,24.28-8.54,41.53v70.69h.89l16.9-8v-55.14h64.2c-.59,11.45-2.55,20.46-5.87,27.04-5.16,10.25-13.02,17.87-23.57,22.85l6.67,13.25h.89c12.86-4.38,23.3-14.11,31.3-29.17,5.69-10.73,8.54-24.57,8.54-41.53s-2.85-31.04-8.54-41.53c-9.9-18.26-23.71-27.39-41.44-27.39h0Zm-32.01,61.36c.59-11.38,2.55-20.39,5.87-27.03,6.46-12.8,15.18-19.21,26.14-19.21s19.74,6.41,26.15,19.21c3.32,6.64,5.27,15.65,5.87,27.03H75.48Z"/>
  </g>
  <g>
    <path class="cls-1" d="M190.04,167.14c-17.49,0-31.36-9.17-41.23-27.26-5.64-10.34-8.5-24.27-8.5-41.41s2.86-31.06,8.5-41.42c9.87-18.09,23.74-27.26,41.23-27.26s31.29,9.09,41.09,27.03l-14.12,6.8h-.68c-6.42-12.75-15.26-19.21-26.29-19.21s-19.9,6.51-26.37,19.35c-4.03,7.99-6.08,19.67-6.08,34.71s2.04,26.88,6.08,34.71c6.6,12.84,15.47,19.34,26.37,19.34s19.85-6.48,26.32-19.27l20.33-9.54h.53c-1.14,5.54-3.14,10.98-5.96,16.17-9.86,18.09-23.73,27.26-41.22,27.26Z"/>
    <path d="M190.04,30.06c17.3,0,31,8.97,40.75,26.66l-13.83,6.66h-.47c-6.46-12.75-15.35-19.21-26.45-19.21s-20.07,6.56-26.6,19.48c-4.05,8.03-6.1,19.74-6.1,34.82s2.05,26.96,6.1,34.82c6.65,12.93,15.59,19.48,26.59,19.48s19.99-6.5,26.51-19.33l20.2-9.48h.17c-1.14,5.41-3.12,10.73-5.88,15.8-9.82,18-23.61,27.13-41,27.13s-31.19-9.13-41.01-27.13c-5.62-10.3-8.47-24.19-8.47-41.29s2.85-30.98,8.47-41.3c9.82-18,23.62-27.13,41.01-27.13m0-.5c-17.67,0-31.49,9.13-41.45,27.39-5.69,10.44-8.54,24.28-8.54,41.53s2.84,31.09,8.54,41.53c9.96,18.26,23.78,27.39,41.45,27.39s31.48-9.12,41.44-27.39c2.9-5.34,4.92-10.85,6.05-16.54h-.89l-20.46,9.6c-6.46,12.8-15.17,19.21-26.14,19.21s-19.56-6.41-26.15-19.21c-4.04-7.83-6.05-19.36-6.05-34.59s2.01-26.59,6.05-34.59c6.46-12.8,15.17-19.21,26.15-19.21s19.73,6.41,26.14,19.21h.89l14.41-6.94c-9.9-18.26-23.72-27.39-41.44-27.39h0Z"/>
  </g>
</svg>